<?xml version="1.0" encoding="utf-8"?>
<!-- Generator: Adobe Illustrator 26.1.0, SVG Export Plug-In . SVG Version: 6.00 Build 0)  -->
<svg version="1.1" id="Layer_1" xmlns="http://www.w3.org/2000/svg" xmlns:xlink="http://www.w3.org/1999/xlink" x="0px" y="0px"
	 viewBox="0 0 100 70" style="enable-background:new 0 0 100 70;" xml:space="preserve">
<style type="text/css">
	.st0{fill-rule:evenodd;clip-rule:evenodd;fill:#FFFFFF;}
	.st1{fill-rule:evenodd;clip-rule:evenodd;fill:#ED1D24;}
</style>
<g id="a">
</g>
<g id="b">
	<g>
		<path class="st0" d="M0,53.5l0.1-39.1h1.2l1.6,2.8v11.3c7.8-8,16.7-2.3,20.1,2s2.8,16.3-2.2,21C15.7,56.2,7.6,56.7,0,53.5L0,53.5z
			 M19.9,47.4c-3.2,4.8-9.2,6.3-16.8,3.9V31.8c8.2-9,16.5-3.4,18.2,1.5C23,38.2,23.1,42.7,19.9,47.4z"/>
		<path class="st0" d="M39.5,24.5c7.4,0,13.4,7,13.4,15.5s-6,15.5-13.4,15.5s-13.4-7-13.4-15.5S32.1,24.5,39.5,24.5z M39.5,27.5
			C45.3,27.5,50,33.1,50,40s-4.7,12.5-10.5,12.5S29,47,29,40S33.7,27.5,39.5,27.5z"/>
		<path class="st1" d="M60,55.4H49.8L62,24.6h8.8L83,55.2h-9.7l3.1-5.3H56.8L60,55.4C59.9,55.4,60,55.4,60,55.4z M60.7,49.5
			l5.8-16.7l4.7,12.6L60.7,49.5C60.7,49.5,60.7,49.5,60.7,49.5z"/>
		<path class="st0" d="M84.9,17.3v7.1h-6.7l-2.7,2.7h9.2v21.4c0.5,4.2,2.3,6.2,5.8,6.7s6,0.7,9.5-1.1v-3.2c-2.2,1.3-4.8,1.9-8.1,1.6
			c-2.5-0.3-3.6-1.9-3.6-4.8V27.1h10v-2.5h-9.7V14.5h-1C86.6,15.5,85.9,16.3,84.9,17.3L84.9,17.3L84.9,17.3z"/>
	</g>
</g>
</svg>
