<?xml version="1.0" encoding="UTF-8"?><svg xmlns="http://www.w3.org/2000/svg" viewBox="0 0 100 70"><defs><style>.c{fill:#00e8c0;}.d{fill:#fefefe;}</style></defs><g id="a"/><g id="b"><g><path class="d" d="M15.8,39.98c-.19,1.53-.7,2.79-1.5,3.79-1.32,1.63-3.06,2.44-5.34,2.38-2.98-.06-4.59-1.15-6.44-2.94-1.58-1.51-2.52-3.98-2.52-5.84,0-1.27,.32-2.06,.89-3.41,.62-1.41,1.31-2.1,2.28-3,1.77-1.67,3.84-2.43,6.04-2.43,1.77,0,3.25,.44,4.4,1.3,.94,.71,1.4,1.57,1.4,2.56,0,.56-.19,1.01-.51,1.39-.35,.37-.78,.56-1.26,.56-.51,0-.94-.19-1.29-.59-.35-.39-.54-.85-.54-1.4s.29-1.14,.83-1.77l.13-.36c0-.69-1.07-.98-3.19-1.03-2.2-.07-3.49,.52-4.35,1.49-.89,1.03-.99,3.15-.99,6.1v1.91c0,2.14,.05,3.71,.56,4.8,.62,1.35,2.12,2.11,4.27,2.11,1.77,0,3.22-.48,4.37-1.46,1.13-.98,1.85-2.36,2.17-4.16h.59Z"/><path class="d" d="M23.18,33.38c.24-1,.62-1.86,1.1-2.57,1.02-1.48,2.33-2.23,3.89-2.23,.83,0,1.48,.23,1.99,.66,.48,.44,.75,1,.75,1.72,0,.55-.16,1.01-.48,1.35-.3,.36-.7,.51-1.21,.51s-.94-.16-1.26-.5c-.32-.34-.51-.77-.51-1.31,0-.64,.32-1.19,.94-1.63-.03-.09-2.01,.32-2.98,1.25-.46,.46-.83,.9-1.07,1.34-.24,.43-.48,1.09-.75,1.95-.29,.86-.4,2.11-.4,3.77v7.28h3.57v.7h-10.04v-.7h3.17v-14.98h-3.17v-.67h4.05c1.1,0,1.9-.37,2.41-1.08v5.14h0Z"/><path class="d" d="M44.25,40.3v-5.9c0-1.2-.05-2.06-.19-2.58-.11-.49-.4-.97-.8-1.42-.91-.92-2.2-1.39-3.92-1.39s-3.14,.43-3.97,1.31c-.89,.86-1.31,2.2-1.31,4.03v5.84c0,1.98,.43,3.37,1.31,4.2,.32,.32,.89,.6,1.64,.81,.78,.23,1.56,.34,2.36,.34,.91,0,1.74-.14,2.44-.41,.75-.27,1.29-.64,1.61-1.1,.56-.78,.83-2.03,.83-3.74h0Zm-4.8-11.9c1.85,0,3.68,.74,5.39,2.21,2.09,1.82,3.17,4.01,3.17,6.6,0,2.36-.89,4.45-2.68,6.28-1.77,1.76-3.78,2.66-6.04,2.66-2.41,0-4.48-.92-6.28-2.73-.86-.86-1.53-1.84-2.01-2.9-.48-1.08-.72-2.15-.72-3.19,0-1.17,.3-2.35,.89-3.53,.59-1.16,1.42-2.19,2.47-3.07,1.82-1.55,3.78-2.33,5.82-2.33h0Z"/><path class="d" d="M54.39,32.74c.4-1.25,1.18-2.28,2.33-3.07,1.18-.8,2.5-1.19,3.97-1.19,1.91,0,3.35,.59,4.29,1.78,.48,.64,.78,1.52,.91,2.71,.48-1.39,1.26-2.48,2.36-3.28,1.07-.78,2.36-1.18,3.81-1.18,1.85,0,3.3,.56,4.29,1.7,.46,.52,.75,1.1,.89,1.69,.16,.61,.22,1.6,.22,3v10.08h3.17v.7h-9.74v-.7h3.19v-12.42c0-2.18-.94-3.26-2.76-3.26-1.72,0-3.14,.84-4.27,2.53-.75,1.19-1.15,2.19-1.15,3.03v10.12h3.14v.7h-9.66v-.7h3.22v-13.04c0-.87-.21-1.54-.64-2.02-.46-.5-1.07-.75-1.88-.75-1.21,0-2.39,.47-3.49,1.41-1.07,.95-1.8,2.14-2.2,3.58v10.82h3.11v.7h-9.55v-.7h3.14v-14.98h-3.14v-.67h3.94c1.34,0,2.15-.37,2.5-1.13v4.54h0Z"/><path class="d" d="M99.34,43.42c-.35,1.33-.72,1.63-1.35,1.68-.59,.04-1.1-.27-1.25-.95-.06-.33-.22-1.54-.28-3.62v-7.26c0-.86-.07-1.5-.29-1.99-.24-.52-.53-1.01-1.45-1.56-1.58-1.01-3.81-1.37-5.88-1.37-1.76,0-3.27,.45-4.56,1.36-1.29,.89-1.93,1.97-1.93,3.22,0,.6,.18,1.09,.53,1.46,.33,.39,.76,.57,1.31,.57,.48,0,.92-.16,1.24-.49,.29-.34,.48-.78,.48-1.33s-.33-1.05-.86-1.48c-.3-.23-.46-.47-.46-.68,0-.53,.37-.99,1.1-1.37,.78-.4,1.82-.6,3.22-.6,.89,0,1.62,.07,2.21,.21,.72,.19,1.21,.49,1.47,.9,.24,.4,.37,1.06,.37,2.01v4.03h-.24c-1.42,0-2.89,.12-4.4,.36-1.53,.23-2.57,.54-3.59,.95-.99,.39-1.82,1-2.5,1.87-.64,.84-.99,1.74-.99,2.64,0,1.04,.48,1.99,1.42,2.8,.96,.86,2.46,1.29,4.5,1.29,1.42,0,2.45-.25,3.52-.74,1.07-.48,1.9-1.17,2.45-2.06,.13,.88,.51,1.53,1.07,2.01,.55,.45,1.56,.78,2.57,.78,1.51-.01,2.58-.29,3.22-2.64h-.66Zm-6.37-1.15c-.37,.84-1.01,1.54-1.9,2.06-.94,.52-1.93,.78-3.06,.78-1.21,0-2.06-.31-2.57-.89-.51-.6-.76-1.63-.76-3.06,0-1.51,.35-2.53,1.13-3.11,1.12-.83,3.44-1.28,6.92-1.28h.24v5.5Z"/><polygon class="c" points="83.31 23.84 83.31 25.63 96.17 25.63 96.17 23.84 83.31 23.84 83.31 23.84"/></g></g></svg>